<svg width="20" height="20" viewBox="0 0 20 20" fill="none" xmlns="http://www.w3.org/2000/svg">
<path d="M6.875 16.875C7.22018 16.875 7.5 16.5952 7.5 16.25C7.5 15.9048 7.22018 15.625 6.875 15.625C6.52982 15.625 6.25 15.9048 6.25 16.25C6.25 16.5952 6.52982 16.875 6.875 16.875Z" stroke="#171212" stroke-width="1.2" stroke-linecap="round" stroke-linejoin="round"/>
<path d="M15.625 16.875C15.9702 16.875 16.25 16.5952 16.25 16.25C16.25 15.9048 15.9702 15.625 15.625 15.625C15.2798 15.625 15 15.9048 15 16.25C15 16.5952 15.2798 16.875 15.625 16.875Z" stroke="#171212" stroke-width="1.2" stroke-linecap="round" stroke-linejoin="round"/>
<path d="M1.875 3.125H4.375L6.25 13.75H16.25" stroke="#171212" stroke-width="1.2" stroke-linecap="round" stroke-linejoin="round"/>
<path d="M6.25 10.416H15.9938C16.066 10.4161 16.1361 10.3911 16.192 10.3453C16.2479 10.2995 16.2862 10.2357 16.3004 10.1648L17.4254 4.53984C17.4345 4.49449 17.4334 4.44768 17.4222 4.4028C17.4109 4.35792 17.3899 4.31609 17.3606 4.28033C17.3312 4.24456 17.2943 4.21576 17.2525 4.19599C17.2107 4.17622 17.165 4.16598 17.1188 4.16602H5" stroke="#171212" stroke-width="1.2" stroke-linecap="round" stroke-linejoin="round"/>
</svg>
