<svg width="24" height="24" viewBox="0 0 24 24" fill="none" xmlns="http://www.w3.org/2000/svg">
<rect width="24" height="24" rx="12" fill="white"/>
<path d="M20.48 12.2117C20.48 11.5838 20.4238 10.98 20.3194 10.4004H12V13.8258H16.7539C16.5492 14.9327 15.9268 15.8706 14.9913 16.4985V18.7204H17.8461C19.5164 17.1788 20.48 14.9086 20.48 12.2117Z" fill="#4285F4"/>
<path d="M11.9734 20.7996C14.3341 20.7996 16.3133 20.0036 17.7599 18.6461L14.9342 16.4158C14.1513 16.9491 13.1497 17.2643 11.9734 17.2643C9.69609 17.2643 7.76856 15.7006 7.08101 13.5996H4.15991V15.9026C5.5986 18.8077 8.55547 20.7996 11.9734 20.7996Z" fill="#34A853"/>
<path d="M7.03995 13.6923C6.86559 13.1579 6.76651 12.587 6.76651 12C6.76651 11.413 6.86559 10.8421 7.03995 10.3077V8H4.12726C3.51698 9.24118 3.19941 10.611 3.19995 12C3.19995 13.4372 3.53679 14.7976 4.12726 16L7.03995 13.6923Z" fill="#FBBC05"/>
<path d="M11.8686 6.53535C13.1613 6.53535 14.322 6.98384 15.2345 7.86465L17.76 5.31515C16.2351 3.88081 14.242 3 11.8686 3C8.42657 3 5.44884 4.99192 4 7.89697L6.94171 10.2C7.63411 8.09899 9.57524 6.53535 11.8686 6.53535Z" fill="#FF5722"/>
</svg>
