<svg width="33" height="34" viewBox="0 0 33 34" fill="none" xmlns="http://www.w3.org/2000/svg">
<path fill-rule="evenodd" clip-rule="evenodd" d="M16.3586 3.27148C12.7447 3.27148 9.81513 6.20109 9.81513 9.81494V11.4508H8.17928C7.34573 11.4508 6.64548 12.0776 6.55343 12.906L4.91758 27.6288C4.86619 28.0913 5.01418 28.5537 5.3245 28.9004C5.63483 29.2472 6.07812 29.4453 6.54343 29.4453H26.1737C26.639 29.4453 27.0823 29.2472 27.3926 28.9004C27.7029 28.5537 27.8509 28.0913 27.7995 27.6288L26.1637 12.906C26.0716 12.0776 25.3714 11.4508 24.5378 11.4508H22.902V9.81494C22.902 6.20109 19.9724 3.27148 16.3586 3.27148ZM19.6303 11.4508V9.81494C19.6303 8.00802 18.1655 6.54321 16.3586 6.54321C14.5516 6.54321 13.0868 8.00802 13.0868 9.81494V11.4508H19.6303ZM9.81513 16.3584C9.81513 15.4549 10.5475 14.7225 11.451 14.7225C12.3544 14.7225 13.0868 15.4549 13.0868 16.3584C13.0868 17.2619 12.3544 17.9943 11.451 17.9943C10.5475 17.9943 9.81513 17.2619 9.81513 16.3584ZM21.2661 14.7225C20.3627 14.7225 19.6303 15.4549 19.6303 16.3584C19.6303 17.2619 20.3627 17.9943 21.2661 17.9943C22.1696 17.9943 22.902 17.2619 22.902 16.3584C22.902 15.4549 22.1696 14.7225 21.2661 14.7225Z" fill="#FF5722"/>
<rect x="14.1133" y="18.6035" width="15.3963" height="15.3964" rx="4" fill="#FAFAFA"/>
<path fill-rule="evenodd" clip-rule="evenodd" d="M17.9624 20.1431C17.1121 20.1431 16.4228 20.8324 16.4228 21.6827V32.4602L19.1171 30.9205L21.8115 32.4602L24.5058 30.9205L27.2002 32.4602V21.6827C27.2002 20.8324 26.5109 20.1431 25.6606 20.1431H17.9624ZM19.887 22.4525C19.2492 22.4525 18.7322 22.9695 18.7322 23.6072C18.7322 24.245 19.2492 24.762 19.887 24.762C20.5247 24.762 21.0417 24.245 21.0417 23.6072C21.0417 22.9695 20.5247 22.4525 19.887 22.4525ZM24.6653 22.678C24.3646 22.3774 23.8772 22.3774 23.5766 22.678L18.9577 27.2969C18.6571 27.5975 18.6571 28.085 18.9577 28.3856C19.2583 28.6862 19.7458 28.6862 20.0464 28.3856L24.6653 23.7667C24.9659 23.4661 24.9659 22.9786 24.6653 22.678ZM23.736 26.3016C23.0983 26.3016 22.5813 26.8186 22.5813 27.4563C22.5813 28.0941 23.0983 28.6111 23.736 28.6111C24.3738 28.6111 24.8908 28.0941 24.8908 27.4563C24.8908 26.8186 24.3738 26.3016 23.736 26.3016Z" fill="#FF5722"/>
<path d="M20.508 22.3373C20.0194 21.6639 20.2381 20.8954 20.358 20.5892C20.3741 20.5489 20.3311 20.511 20.2973 20.5357C20.0871 20.6888 19.6566 21.0491 19.4561 21.5562C19.1846 22.2418 19.204 22.5773 19.3647 22.9872C19.4614 23.2341 19.3491 23.2865 19.2927 23.2957C19.2378 23.3049 19.1873 23.2658 19.147 23.2249C19.031 23.1057 18.9484 22.9542 18.9083 22.7874C18.8997 22.7517 18.8562 22.742 18.8363 22.7713C18.6858 22.9941 18.6079 23.3515 18.6041 23.6042C18.5923 24.3853 19.1948 25.0184 19.9237 25.0184C20.8423 25.0184 21.5115 23.9306 20.9837 23.0211C20.8305 22.7563 20.6864 22.5831 20.508 22.3373Z" fill="#F5F5F5"/>
</svg>
